<?xml version="1.0" encoding="UTF-8"?>
<svg version="1.1" xmlns="http://www.w3.org/2000/svg" width="320" height="313">
<path d="M0 0 C1.11109131 0.24943359 1.11109131 0.24943359 2.24462891 0.50390625 C14.13552808 3.26032847 25.05479905 7.64634188 36 13 C37.01586182 13.4935498 37.01586182 13.4935498 38.05224609 13.99707031 C53.82224172 21.75635685 66.64906877 32.557035 79 45 C79.54849609 45.52424561 80.09699219 46.04849121 80.66210938 46.58862305 C84.97150972 50.75433729 88.53316746 55.13628409 91.9375 60.0625 C92.45328613 60.80419434 92.96907227 61.54588867 93.50048828 62.31005859 C101.22717139 73.55916475 107.42247435 85.13715291 112 98 C112.22816406 98.63131836 112.45632813 99.26263672 112.69140625 99.91308594 C125.07395549 134.74342802 122.47300626 173.6278189 106.94140625 207.0234375 C89.21063318 243.86636628 58.0028576 273.04802859 19.28271484 286.97753906 C-21.66697284 300.66434652 -68.04543781 298.37239349 -106.859375 279.11376953 C-136.61243848 263.63321802 -159.65238224 239.63491095 -175 210 C-175.56589844 208.91074219 -176.13179687 207.82148438 -176.71484375 206.69921875 C-192.71897634 173.99866285 -193.76370807 134.51073278 -182.46484375 100.25390625 C-174.38765549 76.77781275 -161.07159353 56.10080544 -143 39 C-142.34 39 -141.68 39 -141 39 C-140.67 38.01 -140.34 37.02 -140 36 C-137.67789124 33.72539527 -135.02860383 31.8334121 -132.4375 29.875 C-131.6738916 29.2960498 -130.9102832 28.71709961 -130.12353516 28.12060547 C-122.78656437 22.66739022 -115.14559228 18.12710009 -107 14 C-106.36852051 13.67805664 -105.73704102 13.35611328 -105.08642578 13.02441406 C-73.19406682 -3.03270251 -34.91779285 -8.03908397 0 0 Z M-48.7890625 53.94140625 C-53.59671753 60.12755952 -54.82115283 65.20483088 -54 73 C-52.20522872 78.92787316 -49.01962539 82.51699463 -44 86 C-37.89909747 88.90714147 -31.18560885 89.0376967 -24.65234375 87.41796875 C-18.86520825 84.97599828 -15.72049492 80.52571114 -13 75 C-11.41975156 69.46913046 -11.85877805 64.31205276 -14 59 C-17.561608 53.4799876 -21.54728431 49.72072418 -28 48 C-36.08284603 47.04266141 -43.07075145 47.73616478 -48.7890625 53.94140625 Z M-53 109 C-54.73683988 110.73683988 -54.12612457 113.10228931 -54.12698364 115.46643066 C-54.12980347 116.65275589 -54.13262329 117.83908112 -54.13552856 119.06135559 C-54.13350433 120.3746434 -54.1314801 121.68793121 -54.12939453 123.04101562 C-54.13074855 124.42868597 -54.13252848 125.81635596 -54.13470459 127.20402527 C-54.13927888 130.98284721 -54.13748938 134.76164196 -54.1343255 138.5404644 C-54.13180188 142.48649038 -54.13413945 146.43251397 -54.13571167 150.37854004 C-54.13753336 157.00643331 -54.13512708 163.63431545 -54.13037109 170.26220703 C-54.12492847 177.93583203 -54.12669113 185.60943047 -54.1321975 193.28305483 C-54.13672865 199.85968393 -54.13737917 206.43630501 -54.13475883 213.01293516 C-54.13319607 216.94603123 -54.13300227 220.8791148 -54.13629532 224.81221008 C-54.13917406 228.50901349 -54.13719829 232.2057825 -54.13140106 235.90258217 C-54.12943784 237.91460243 -54.13242735 239.92662558 -54.13552856 241.93864441 C-54.13270874 243.12496964 -54.12988892 244.31129486 -54.12698364 245.53356934 C-54.12660662 246.57113121 -54.12622959 247.60869308 -54.12584114 248.67769623 C-54.26133411 250.96126932 -54.26133411 250.96126932 -53 252 C-39.8 252 -26.6 252 -13 252 C-13 204.81 -13 157.62 -13 109 C-26.2 109 -39.4 109 -53 109 Z " fill="#006498" transform="translate(194,11)"/>
<path d="M0 0 C1.15128136 0.01573311 1.15128136 0.01573311 2.32582092 0.03178406 C3.14054367 0.05456924 3.95526642 0.07735443 4.79467773 0.10083008 C6.06830421 0.12769646 6.06830421 0.12769646 7.36766052 0.15510559 C9.15718479 0.19618487 10.94659068 0.24274167 12.73583984 0.29443359 C15.47216822 0.37019235 18.20811181 0.41912554 20.94506836 0.46606445 C22.68664596 0.50936188 24.42818536 0.5542305 26.16967773 0.60083008 C26.98642471 0.61349411 27.80317169 0.62615814 28.64466858 0.63920593 C33.03845232 0.7900949 35.80533192 0.98249702 38.91577148 4.18286133 C39.39513874 6.7824955 39.39513874 6.7824955 39.36555481 9.96572876 C39.36408447 11.17163162 39.36261414 12.37753448 39.36109924 13.61997986 C39.3390941 14.95816669 39.31669624 16.29634712 39.29394531 17.63452148 C39.28459289 19.04218021 39.27699611 20.44985155 39.27102661 21.85752869 C39.24968432 25.68199597 39.20335758 29.50580011 39.15234971 33.32997179 C39.10298084 37.32658946 39.07556211 41.32335839 39.045578 45.32015991 C38.99211278 52.03043206 38.92377068 58.74041616 38.84521484 65.45043945 C38.74431015 74.07401663 38.66641345 82.69763581 38.59630299 91.32151222 C38.53609328 98.72413279 38.46697565 106.12666573 38.39556289 113.52918577 C38.3803425 115.12092157 38.36543035 116.71266035 38.35082078 118.30440187 C38.30918749 122.83942317 38.26288486 127.37434072 38.20845413 131.90922737 C38.19265196 133.28591522 38.17853607 134.66262356 38.16618538 136.03934669 C38.14905551 137.91093296 38.12518301 139.78245398 38.10090637 141.65396118 C38.08925855 142.70367411 38.07761072 143.75338703 38.06560993 144.83490944 C37.91577148 147.18286133 37.91577148 147.18286133 36.91577148 148.18286133 C22.06577148 148.18286133 7.21577148 148.18286133 -8.08422852 148.18286133 C-8.41422852 100.00286133 -8.74422852 51.82286133 -9.08422852 2.18286133 C-3.45725528 -0.06792797 -3.45725528 -0.06792797 0 0 Z M-5.08422852 4.18286133 C-6.82106839 5.9197012 -6.21035308 8.28515064 -6.21121216 10.64929199 C-6.21403198 11.83561722 -6.21685181 13.02194244 -6.21975708 14.24421692 C-6.21773285 15.55750473 -6.21570862 16.87079254 -6.21362305 18.22387695 C-6.21497706 19.6115473 -6.216757 20.99921729 -6.21893311 22.3868866 C-6.2235074 26.16570853 -6.2217179 29.94450329 -6.21855402 33.72332573 C-6.2160304 37.66935171 -6.21836796 41.6153753 -6.21994019 45.56140137 C-6.22176187 52.18929464 -6.21935559 58.81717678 -6.21459961 65.44506836 C-6.20915699 73.11869336 -6.21091965 80.7922918 -6.21642601 88.46591616 C-6.22095717 95.04254526 -6.22160768 101.61916634 -6.21898735 108.19579649 C-6.21742458 112.12889256 -6.21723079 116.06197613 -6.22052383 119.99507141 C-6.22340258 123.69187482 -6.2214268 127.38864382 -6.21562958 131.0854435 C-6.21366635 133.09746376 -6.21665586 135.10948691 -6.21975708 137.12150574 C-6.21693726 138.30783096 -6.21411743 139.49415619 -6.21121216 140.71643066 C-6.21083513 141.75399254 -6.21045811 142.79155441 -6.21006966 143.86055756 C-6.34556263 146.14413065 -6.34556263 146.14413065 -5.08422852 147.18286133 C8.11577148 147.18286133 21.31577148 147.18286133 34.91577148 147.18286133 C34.91577148 99.99286133 34.91577148 52.80286133 34.91577148 4.18286133 C21.71577148 4.18286133 8.51577148 4.18286133 -5.08422852 4.18286133 Z " fill="#1A587E" transform="translate(146.084228515625,115.817138671875)"/>
<path d="M0 0 C0.7974855 2.31995782 1.11434828 3.61982909 0.3984375 6 C-0.10816406 6.99 -0.10816406 6.99 -0.625 8 C-0.94726562 8.66 -1.26953125 9.32 -1.6015625 10 C-3 12 -3 12 -5.4765625 13.84765625 C-8.55653505 16.47469166 -9.40059525 18.64777561 -10.75 22.4375 C-11.15734375 23.54996094 -11.5646875 24.66242188 -11.984375 25.80859375 C-12.85433098 28.54226311 -13.5145097 31.17676837 -14 34 C-14.66 34 -15.32 34 -16 34 C-17.06109111 38.69911777 -18.08592848 43.39504259 -19 48.125 C-19.5539962 50.94691815 -20.18119138 53.61152092 -21 56.375 C-24.34386194 68.49649954 -25.37367219 81.10129646 -24.6875 93.625 C-24.65293701 94.31239258 -24.61837402 94.99978516 -24.58276367 95.70800781 C-24.33977074 99.26716567 -24.02520541 100.96219188 -22 104 C-21.40234375 106.234375 -21.40234375 106.234375 -20.9375 108.75 C-20.69 110.08417969 -20.69 110.08417969 -20.4375 111.4453125 C-19.78206991 115.27255605 -19.20441478 119.09969965 -18.7890625 122.9609375 C-18.2858526 127.48982662 -17.26666158 131.60890653 -16 136 C-16 137.32 -16 138.64 -16 140 C-15.38125 139.79375 -14.7625 139.5875 -14.125 139.375 C-13.42375 139.25125 -12.7225 139.1275 -12 139 C-9.36600346 141.63399654 -9.21507108 143.75176302 -8.4375 147.375 C-8.18871094 148.51710937 -7.93992187 149.65921875 -7.68359375 150.8359375 C-7.28788251 152.66751523 -6.91367075 154.50456515 -6.59765625 156.3515625 C-6.40042969 156.89554688 -6.20320313 157.43953125 -6 158 C-5.01 158.33 -4.02 158.66 -3 159 C-1.61328125 160.99609375 -1.61328125 160.99609375 -0.3125 163.4375 C0.12449219 164.24058594 0.56148437 165.04367188 1.01171875 165.87109375 C2 168 2 168 2 170 C2.99 170.33 3.98 170.66 5 171 C5 171.99 5 172.98 5 174 C5.99 174.33 6.98 174.66 8 175 C11 178.44444444 11 178.44444444 11 181 C11.66 181 12.32 181 13 181 C17 185.47058824 17 185.47058824 17 188 C18.32 188 19.64 188 21 188 C21.598125 188.9075 22.19625 189.815 22.8125 190.75 C25.50872198 194.75581551 27.7409322 195.8704661 32 198 C32 198.66 32 199.32 32 200 C33.32 200.33 34.64 200.66 36 201 C36 201.66 36 202.32 36 203 C37.98 203.99 37.98 203.99 40 205 C40 205.66 40 206.32 40 207 C41.32 207 42.64 207 44 207 C44.33 208.32 44.66 209.64 45 211 C34.64492982 207.39741639 25.82498841 198.40798276 18 191 C17.11570313 190.18015625 16.23140625 189.3603125 15.3203125 188.515625 C3.35155562 177.05545553 -5.41057943 163.65450902 -13 149 C-13.56589844 147.91074219 -14.13179687 146.82148438 -14.71484375 145.69921875 C-30.71897634 112.99866285 -31.76370807 73.51073278 -20.46484375 39.25390625 C-15.56069768 25.01090768 -9.08803385 12.07004496 0 0 Z " fill="#1A557D" transform="translate(32,72)"/>
<path d="M0 0 C1.32 0 2.64 0 4 0 C2.4618001 5.11426972 -0.70971511 8.46984357 -4.1875 12.375 C-4.73986328 13.00921875 -5.29222656 13.6434375 -5.86132812 14.296875 C-12.10004055 21.39784849 -18.5755045 27.73682518 -26.125 33.4375 C-26.87217285 34.00243164 -27.6193457 34.56736328 -28.38916016 35.14941406 C-55.81586895 55.64757888 -86.69834503 66.23312824 -120.87695312 66.13037109 C-122.9961665 66.1250097 -125.11516802 66.13034741 -127.234375 66.13671875 C-147.70351133 66.14824433 -147.70351133 66.14824433 -154 63 C-154 62.67 -154 62.34 -154 62 C-153.1042627 62.06783691 -152.20852539 62.13567383 -151.28564453 62.20556641 C-142.49406185 62.83621503 -133.72649024 63.27166864 -124.91064453 63.35009766 C-123.54979455 63.36674514 -122.18903506 63.39415006 -120.82861328 63.43212891 C-111.97773702 63.67534295 -104.80247851 62.76104711 -96.64575195 59.05004883 C-93.11172467 57.64746035 -90.67124655 58.23804317 -87 59 C-84.36768879 58.62685265 -81.82205155 58.07939407 -79.234375 57.47265625 C-77 57 -77 57 -74 57 C-74 56.34 -74 55.68 -74 55 C-71.02588876 53.76078698 -68.14737182 52.69941596 -65 52 C-65 51.34 -65 50.68 -65 50 C-64.32453125 49.86722656 -63.6490625 49.73445313 -62.953125 49.59765625 C-62.06109375 49.42105469 -61.1690625 49.24445313 -60.25 49.0625 C-59.36828125 48.88847656 -58.4865625 48.71445312 -57.578125 48.53515625 C-56.72734375 48.35855469 -55.8765625 48.18195313 -55 48 C-53.87851563 47.81244141 -53.87851563 47.81244141 -52.734375 47.62109375 C-52.16203125 47.41613281 -51.5896875 47.21117187 -51 47 C-50.67 46.01 -50.34 45.02 -50 44 C-48.22265625 43.19140625 -48.22265625 43.19140625 -46.0625 42.5625 C-42.7675145 41.57516332 -42.7675145 41.57516332 -40.8125 38.875 C-40.544375 38.25625 -40.27625 37.6375 -40 37 C-37.625 36.375 -37.625 36.375 -35 36 C-32.76591887 35.00916033 -32.76591887 35.00916033 -31 34 C-31 33.34 -31 32.68 -31 32 C-30.443125 31.7525 -29.88625 31.505 -29.3125 31.25 C-25.95956419 29.43760226 -22.73442754 27.46885508 -21 24 C-20.01 23.67 -19.02 23.34 -18 23 C-16.29144978 19.99992729 -16.29144978 19.99992729 -15 17 C-13.68 17 -12.36 17 -11 17 C-10.401875 15.948125 -9.80375 14.89625 -9.1875 13.8125 C-8.82011719 13.17441406 -8.45273437 12.53632813 -8.07421875 11.87890625 C-7.19793509 10.34620646 -6.34542041 8.79993742 -5.5 7.25 C-3.91752758 4.87629137 -2.28730047 3.65632103 0 2 C0 1.34 0 0.68 0 0 Z " fill="#19547D" transform="translate(283,240)"/>
<path d="M0 0 C0.78043167 0.02017181 1.56086334 0.04034363 2.36494446 0.06112671 C3.60585091 0.10942123 3.60585091 0.10942123 4.87182617 0.15869141 C6.15968269 0.19623032 6.15968269 0.19623032 7.47355652 0.23452759 C10.20438935 0.31642165 12.93446558 0.41312852 15.66479492 0.51025391 C17.52088423 0.56852478 19.37700421 0.62582738 21.2331543 0.68212891 C25.77329968 0.82195471 30.3128243 0.97506337 34.85229492 1.13525391 C34.85229492 1.79525391 34.85229492 2.45525391 34.85229492 3.13525391 C20.99229492 3.13525391 7.13229492 3.13525391 -7.14770508 3.13525391 C-6.81770508 3.79525391 -6.48770508 4.45525391 -6.14770508 5.13525391 C-6.04218218 7.01015353 -6.00107824 8.88880106 -5.98948669 10.76663208 C-5.97480347 12.56297089 -5.97480347 12.56297089 -5.95982361 14.39559937 C-5.95391907 15.72955282 -5.94810865 17.0635067 -5.94238281 18.39746094 C-5.93280661 19.79675589 -5.92279668 21.19604793 -5.91238403 22.59533691 C-5.88530095 26.40086366 -5.86430986 30.20640286 -5.84438205 34.0119729 C-5.82254345 37.98651057 -5.79514438 41.96100973 -5.76832581 45.93551636 C-5.71837011 53.46486335 -5.67344198 60.99423169 -5.63030344 68.52362049 C-5.58095562 77.09426679 -5.5260284 85.66487445 -5.47062385 94.23548341 C-5.35675966 111.86870439 -5.2499303 129.50196181 -5.14770508 147.13525391 C-6.13770508 147.46525391 -7.12770508 147.79525391 -8.14770508 148.13525391 C-8.47770508 99.95525391 -8.80770508 51.77525391 -9.14770508 2.13525391 C-3.52270508 -0.11474609 -3.52270508 -0.11474609 0 0 Z " fill="#0D4B71" transform="translate(146.147705078125,115.86474609375)"/>
<path d="M0 0 C0.66 0 1.32 0 2 0 C17.15998122 35.62595586 18.72894736 74.81816226 4.4375 111.0546875 C1.48042845 118.22384654 -1.99729747 125.09179872 -5.75 131.875 C-6.12672852 132.55957275 -6.50345703 133.24414551 -6.89160156 133.94946289 C-8.70206488 137.12667231 -9.90845838 138.93897225 -13 141 C-13 138.69 -13 136.38 -13 134 C-12.34 134 -11.68 134 -11 134 C-11 133.34 -11 132.68 -11 132 C-10.34 132 -9.68 132 -9 132 C-8.70996094 131.41605469 -8.41992188 130.83210937 -8.12109375 130.23046875 C-7.43850884 128.87243396 -6.74578302 127.51935494 -6.03515625 126.17578125 C-3.82289887 121.93784242 -2.15870606 117.76280878 -0.80859375 113.17578125 C0 111 0 111 1.39453125 108.875 C3.72929365 104.6940143 4.84814131 100.28483291 6.125 95.6875 C6.52138672 94.31948242 6.52138672 94.31948242 6.92578125 92.92382812 C9.31198965 84.47519686 10.15598119 76.4586603 10.16796875 67.71484375 C10.17129715 66.85492325 10.17462555 65.99500275 10.17805481 65.10902405 C10.18308633 63.30307546 10.18546431 61.4971177 10.18530273 59.69116211 C10.18749662 56.94173872 10.20571263 54.1927124 10.22460938 51.44335938 C10.2275427 49.67968886 10.2295279 47.91601646 10.23046875 46.15234375 C10.23765427 45.33861801 10.24483978 44.52489227 10.25224304 43.68650818 C10.23257065 38.7343788 9.56771531 34.70089617 8 30 C6.88212232 25.77690653 6.06917705 21.59294611 5.5625 17.25 C5.376875 16.1775 5.19125 15.105 5 14 C4.34 13.67 3.68 13.34 3 13 C2.1484375 11.07421875 2.1484375 11.07421875 1.375 8.6875 C1.11460937 7.90761719 0.85421875 7.12773438 0.5859375 6.32421875 C0 4 0 4 0 0 Z " fill="#1D547D" transform="translate(300,99)"/>
<path d="M0 0 C0 0.66 0 1.32 0 2 C0.61875 2.04125 1.2375 2.0825 1.875 2.125 C2.57625 2.41375 3.2775 2.7025 4 3 C5.25 6.0625 5.25 6.0625 6 9 C5.38511719 8.57847656 4.77023438 8.15695313 4.13671875 7.72265625 C3.32847656 7.17480469 2.52023438 6.62695312 1.6875 6.0625 C0.88699219 5.51722656 0.08648437 4.97195312 -0.73828125 4.41015625 C-5.83438652 1.23279183 -11.18017558 1.44269807 -17 2 C-22.63144205 3.57112501 -25.91915132 6.49050489 -29.08984375 11.31640625 C-31.62248115 16.00124196 -31.55243453 20.82092632 -31 26 C-29.3317083 31.3222132 -26.75990966 34.9815207 -22 38 C-16.42697338 40.63434876 -11.06093443 40.56590592 -5 40 C-1.4952235 38.67014431 -1.4952235 38.67014431 1 37 C1.66 37 2.32 37 3 37 C3.268125 36.443125 3.53625 35.88625 3.8125 35.3125 C5 33 5 33 6.5625 30.6875 C10.20558112 23.87652226 8.7887151 16.38965382 8 9 C8.495 9.99 8.495 9.99 9 11 C9.99 11.33 10.98 11.66 12 12 C12.80171073 29.10316226 12.80171073 29.10316226 8 35 C5.82151887 37.25075302 3.55940443 39.19617858 1 41 C0.27296875 41.5465625 -0.4540625 42.093125 -1.203125 42.65625 C-4.91830473 44.44119669 -8.28876893 44.32773728 -12.3125 44.1875 C-13.42334961 44.16719727 -13.42334961 44.16719727 -14.55664062 44.14648438 C-16.37141075 44.11135979 -18.18580288 44.05755972 -20 44 C-20.33 43.34 -20.66 42.68 -21 42 C-21.92425781 41.56300781 -21.92425781 41.56300781 -22.8671875 41.1171875 C-25.38667887 39.79745393 -26.47031347 38.42076927 -28.125 36.125 C-28.62257812 35.44695312 -29.12015625 34.76890625 -29.6328125 34.0703125 C-34.08238735 27.33238487 -34.57142032 19.57815071 -33.75390625 11.59765625 C-33.09349294 8.83327134 -32.48229678 7.31115921 -30.0625 5.75 C-29.381875 5.5025 -28.70125 5.255 -28 5 C-27.56429687 4.5359375 -27.12859375 4.071875 -26.6796875 3.59375 C-20.17434418 -2.5787618 -7.95210066 -3.97605033 0 0 Z " fill="#225A7A" transform="translate(172,58)"/>
<path d="M0 0 C23.30947065 2.32383329 44.81796362 9.04027474 65 21 C62.18185434 22.40907283 60.82722796 21.50872691 57.875 20.5625 C56.50988281 20.13130859 56.50988281 20.13130859 55.1171875 19.69140625 C54.41851562 19.46324219 53.71984375 19.23507813 53 19 C53 18.34 53 17.68 53 17 C52.13375 16.87625 51.2675 16.7525 50.375 16.625 C47 16 47 16 43.875 14.9375 C40.87017887 13.7933196 40.87017887 13.7933196 37 14 C37 13.34 37 12.68 37 12 C36.01 11.67 35.02 11.34 34 11 C34 10.01 34 9.02 34 8 C29.545 8.495 29.545 8.495 25 9 C25 8.34 25 7.68 25 7 C24.030625 6.855625 23.06125 6.71125 22.0625 6.5625 C19 6 19 6 18 5 C16.19252428 4.7856042 14.3780329 4.62951572 12.5625 4.5 C8.79490348 4.22492124 5.0412651 3.90310443 1.28515625 3.50390625 C-4.1782449 2.94855062 -9.63972957 2.67247296 -15.125 2.4375 C-16.08148438 2.39431641 -17.03796875 2.35113281 -18.0234375 2.30664062 C-20.34886156 2.20199654 -22.67436461 2.09981681 -25 2 C-25 1.67 -25 1.34 -25 1 C-23.91730835 1.00785522 -23.91730835 1.00785522 -22.81274414 1.01586914 C-19.56267151 1.03657358 -16.31261272 1.04963918 -13.0625 1.0625 C-11.35803711 1.07506836 -11.35803711 1.07506836 -9.61914062 1.08789062 C-8.53955078 1.09111328 -7.45996094 1.09433594 -6.34765625 1.09765625 C-5.34742432 1.10289307 -4.34719238 1.10812988 -3.31665039 1.11352539 C-1.03792772 1.26181095 -1.03792772 1.26181095 0 0 Z " fill="#19547C" transform="translate(174,8)"/>
<path d="M0 0 C0.99 0.99 0.99 0.99 2 2 C-2.82821261 3.1872654 -7.41268469 4.09477894 -12.375 4.4375 C-20.15105195 5.07737038 -27.10903721 6.87207917 -34 10.5625 C-39.15501247 13.31405007 -44.24217245 14.26658851 -50 15 C-50.33 15.99 -50.66 16.98 -51 18 C-55.42671246 21.71272658 -60.46735865 21.68845321 -66 22 C-63.76841528 19.53495992 -61.62684722 18.13834022 -58.640625 16.6953125 C-57.78001465 16.27910645 -56.9194043 15.86290039 -56.03271484 15.43408203 C-55.11441895 15.00208496 -54.19612305 14.57008789 -53.25 14.125 C-52.30205566 13.67882324 -51.35411133 13.23264648 -50.37744141 12.77294922 C-39.55397498 7.76327234 -28.71661868 4.23747257 -17.0625 1.6875 C-16.28116699 1.51557129 -15.49983398 1.34364258 -14.69482422 1.16650391 C-9.70727024 0.14639509 -5.09273756 -0.32982603 0 0 Z " fill="#1C567D" transform="translate(144,9)"/>
<path d="M0 0 C0.66 0.33 1.32 0.66 2 1 C2 1.99 2 2.98 2 4 C0.71086513 4.67154933 -0.58140204 5.33708859 -1.875 6 C-2.59429687 6.37125 -3.31359375 6.7425 -4.0546875 7.125 C-6 8 -6 8 -8 8 C-8.144375 8.5775 -8.28875 9.155 -8.4375 9.75 C-8.95833333 11.83333333 -9.47916667 13.91666667 -10 16 C-12 16 -12 16 -13.625 14.5 C-14.07875 14.005 -14.5325 13.51 -15 13 C-15 13.66 -15 14.32 -15 15 C-15.66 15 -16.32 15 -17 15 C-17 15.66 -17 16.32 -17 17 C-21.47058824 21 -21.47058824 21 -24 21 C-24.2475 21.969375 -24.495 22.93875 -24.75 23.9375 C-25.1625 24.948125 -25.575 25.95875 -26 27 C-28.125 27.875 -28.125 27.875 -30 28 C-29.67 28.99 -29.34 29.98 -29 31 C-29.9520721 32.00596297 -30.91187346 33.00461563 -31.875 34 C-32.40867187 34.556875 -32.94234375 35.11375 -33.4921875 35.6875 C-35 37 -35 37 -37 37 C-37.33 37.66 -37.66 38.32 -38 39 C-39.30915279 40.03145371 -40.64082143 41.03542166 -42 42 C-41.01867489 33.2313853 -31.68647491 24.42697271 -25 19 C-24.34 19 -23.68 19 -23 19 C-22.67 18.01 -22.34 17.02 -22 16 C-20.40527344 14.51367187 -20.40527344 14.51367187 -18.359375 12.96875 C-17.61816406 12.40542969 -16.87695312 11.84210937 -16.11328125 11.26171875 C-15.33339844 10.68035156 -14.55351563 10.09898438 -13.75 9.5 C-12.98558594 8.91863281 -12.22117187 8.33726563 -11.43359375 7.73828125 C-3.44753494 1.71080681 -3.44753494 1.71080681 0 0 Z " fill="#0F568A" transform="translate(76,31)"/>
<path d="M0 0 C12.80329254 5.69035224 23.31480532 16.0530433 33 26 C33.48339844 26.43828125 33.96679688 26.8765625 34.46484375 27.328125 C40.96829005 33.38780673 45.86829762 40.78963337 51 48 C50.505 48.99 50.505 48.99 50 50 C48 48.6875 48 48.6875 46 47 C46 46.01 46 45.02 46 44 C45.34 44 44.68 44 44 44 C42.7109375 42.57421875 42.7109375 42.57421875 41.375 40.6875 C40.92898438 40.07261719 40.48296875 39.45773438 40.0234375 38.82421875 C39 37 39 37 39 34 C38.01 34 37.02 34 36 34 C35.731875 33.38125 35.46375 32.7625 35.1875 32.125 C34.04443152 29.7004767 34.04443152 29.7004767 31 28 C31 27.34 31 26.68 31 26 C29.35 26 27.7 26 26 26 C26 25.34 26 24.68 26 24 C25.34 24 24.68 24 24 24 C24 22.68 24 21.36 24 20 C22.68 19.67 21.36 19.34 20 19 C20 17.68 20 16.36 20 15 C18.68 15 17.36 15 16 15 C14.85947841 13.82593366 13.72494667 12.64498764 12.6328125 11.42578125 C9.86640408 9.01013754 6.47727243 7.8012371 3.109375 6.40625 C1 5 1 5 0.203125 2.34375 C0.10257813 1.18359375 0.10257813 1.18359375 0 0 Z " fill="#23587C" transform="translate(240,30)"/>
<path d="M0 0 C0 0.66 0 1.32 0 2 C0.61875 2.04125 1.2375 2.0825 1.875 2.125 C2.57625 2.41375 3.2775 2.7025 4 3 C5.25 6.0625 5.25 6.0625 6 9 C5.38511719 8.57847656 4.77023438 8.15695313 4.13671875 7.72265625 C3.32847656 7.17480469 2.52023438 6.62695312 1.6875 6.0625 C0.88699219 5.51722656 0.08648437 4.97195312 -0.73828125 4.41015625 C-5.83438652 1.23279183 -11.18017558 1.44269807 -17 2 C-22.63144205 3.57112501 -25.91915132 6.49050489 -29.08984375 11.31640625 C-31.62248115 16.00124196 -31.55243453 20.82092632 -31 26 C-29.30334653 31.4126934 -26.70744223 34.77911848 -22 38 C-21.34 38.66 -20.68 39.32 -20 40 C-22.80828805 39.91740329 -24.52400492 39.44224482 -26.59765625 37.515625 C-33.07685507 30.06534233 -33.89902784 23.86161434 -34 14 C-33.70863393 11.15571215 -33.25111895 9.62139209 -32 7 C-30.0625 5.75 -30.0625 5.75 -28 5 C-27.56429687 4.5359375 -27.12859375 4.071875 -26.6796875 3.59375 C-20.17434418 -2.5787618 -7.95210066 -3.97605033 0 0 Z " fill="#265D7D" transform="translate(172,58)"/>
<path d="M0 0 C0.7974855 2.31995782 1.11434828 3.61982909 0.3984375 6 C-0.10816406 6.99 -0.10816406 6.99 -0.625 8 C-0.94726562 8.66 -1.26953125 9.32 -1.6015625 10 C-3 12 -3 12 -5.4765625 13.84765625 C-8.55653505 16.47469166 -9.40059525 18.64777561 -10.75 22.4375 C-11.15734375 23.54996094 -11.5646875 24.66242188 -11.984375 25.80859375 C-12.85433098 28.54226311 -13.5145097 31.17676837 -14 34 C-14.99 34 -15.98 34 -17 34 C-17.66 35.32 -18.32 36.64 -19 38 C-18.41060399 32.82461859 -16.77496864 28.70900447 -14.5625 24.0625 C-14.21703125 23.32974854 -13.8715625 22.59699707 -13.515625 21.84204102 C-9.73532946 14.07356708 -4.99369972 7.03006497 0 0 Z " fill="#23587D" transform="translate(32,72)"/>
<path d="M0 0 C3 0.25 3 0.25 5 2.25 C7.57061311 2.89767793 7.57061311 2.89767793 10 3.25 C10 3.91 10 4.57 10 5.25 C11.03640625 5.45496094 12.0728125 5.65992188 13.140625 5.87109375 C14.51042689 6.14317769 15.88021799 6.41531596 17.25 6.6875 C18.27287109 6.88956055 18.27287109 6.88956055 19.31640625 7.09570312 C22.56469458 7.74220711 25.79815978 8.40002695 29 9.25 C29 9.91 29 10.57 29 11.25 C29.99 11.58 30.98 11.91 32 12.25 C24.72875473 12.64243992 19.19591589 11.37985965 12.375 8.9375 C11.47265625 8.62876953 10.5703125 8.32003906 9.640625 8.00195312 C4.6640975 6.27902997 -0.18933265 4.39173547 -5 2.25 C-3 0.25 -3 0.25 0 0 Z " fill="#1C5782" transform="translate(96,289.75)"/>
<path d="M0 0 C1.28785652 0.03753891 1.28785652 0.03753891 2.60173035 0.07583618 C5.33256318 0.15773024 8.06263941 0.25443711 10.79296875 0.3515625 C12.64905806 0.40983338 14.50517804 0.46713597 16.36132812 0.5234375 C20.90147351 0.6632633 25.44099812 0.81637196 29.98046875 0.9765625 C29.98046875 1.6365625 29.98046875 2.2965625 29.98046875 2.9765625 C15.46046875 3.3065625 0.94046875 3.6365625 -14.01953125 3.9765625 C-14.01953125 3.3165625 -14.01953125 2.6565625 -14.01953125 1.9765625 C-9.31447075 -0.45694629 -5.14330726 -0.20017108 0 0 Z " fill="#074B79" transform="translate(151.01953125,116.0234375)"/>
<path d="M0 0 C0.66 0 1.32 0 2 0 C6.51240719 9.852779 8.96618701 18.02768378 9 29 C8.34 29.33 7.68 29.66 7 30 C7.020625 29.2575 7.04125 28.515 7.0625 27.75 C7.0053864 25.23700167 6.6370913 23.40678937 6 21 C5.855625 19.783125 5.71125 18.56625 5.5625 17.3125 C5.376875 16.219375 5.19125 15.12625 5 14 C4.34 13.67 3.68 13.34 3 13 C2.1484375 11.07421875 2.1484375 11.07421875 1.375 8.6875 C0.98441406 7.51767578 0.98441406 7.51767578 0.5859375 6.32421875 C0 4 0 4 0 0 Z " fill="#135079" transform="translate(300,99)"/>
<path d="M0 0 C1.58167969 0.14888672 1.58167969 0.14888672 3.1953125 0.30078125 C5.875 0.6875 5.875 0.6875 7.875 1.6875 C7.875 2.3475 7.875 3.0075 7.875 3.6875 C8.49375 3.72875 9.1125 3.77 9.75 3.8125 C10.45125 4.10125 11.1525 4.39 11.875 4.6875 C13.125 7.75 13.125 7.75 13.875 10.6875 C13.26011719 10.26597656 12.64523438 9.84445313 12.01171875 9.41015625 C11.20347656 8.86230469 10.39523438 8.31445312 9.5625 7.75 C8.76199219 7.20472656 7.96148437 6.65945312 7.13671875 6.09765625 C4.8491857 4.54912674 4.8491857 4.54912674 1.875 3.6875 C1.875 3.0275 1.875 2.3675 1.875 1.6875 C-2.085 1.6875 -6.045 1.6875 -10.125 1.6875 C-5.87569894 -0.43715053 -4.55079122 -0.46402417 0 0 Z " fill="#18557A" transform="translate(164.125,56.3125)"/>
<path d="M0 0 C1.765625 0.09765625 1.765625 0.09765625 4 1 C5.44036586 3.15176608 6.60483691 5.13980152 7.75 7.4375 C8.22373047 8.3356543 8.22373047 8.3356543 8.70703125 9.25195312 C11 13.68403341 11 13.68403341 11 16 C10.34 16 9.68 16 9 16 C0 4.39473684 0 4.39473684 0 0 Z " fill="#245089" transform="translate(290,82)"/>
<path d="M0 0 C0.33 0.66 0.66 1.32 1 2 C0.67 2.99 0.34 3.98 0 5 C-0.74048321 11.8342959 -0.07248081 17.34304916 4 23 C6.49373043 25.36362416 6.49373043 25.36362416 9 27 C9.66 27.66 10.32 28.32 11 29 C8.19171195 28.91740329 6.47599508 28.44224482 4.40234375 26.515625 C-0.31690253 21.08907154 -2.23709902 17.23358446 -2.8125 9.9375 C-2.92207031 8.70902344 -3.03164062 7.48054688 -3.14453125 6.21484375 C-3 3 -3 3 -1.51171875 1.06640625 C-0.76341797 0.53853516 -0.76341797 0.53853516 0 0 Z " fill="#386381" transform="translate(141,69)"/>
<path d="M0 0 C4.74924755 2.21552987 9.14004626 4.37398285 13 8 C13.33 8.99 13.66 9.98 14 11 C12.31923769 10.36971413 10.65697379 9.69040574 9 9 C8.31421875 8.72027344 7.6284375 8.44054688 6.921875 8.15234375 C4.81739407 7.21743945 2.89710388 6.30758328 1 5 C0 2.25 0 2.25 0 0 Z " fill="#185084" transform="translate(240,30)"/>
<path d="M0 0 C0.33 0.66 0.66 1.32 1 2 C-0.36328125 4.56640625 -0.36328125 4.56640625 -2.3125 7.5625 C-3.26576172 9.04943359 -3.26576172 9.04943359 -4.23828125 10.56640625 C-6 13 -6 13 -8 14 C-8 11.69 -8 9.38 -8 7 C-7.34 7 -6.68 7 -6 7 C-6 6.34 -6 5.68 -6 5 C-5.34 5 -4.68 5 -4 5 C-3.566875 4.0409375 -3.566875 4.0409375 -3.125 3.0625 C-2 1 -2 1 0 0 Z " fill="#155585" transform="translate(295,226)"/>
<path d="M0 0 C0.66 0.66 1.32 1.32 2 2 C1.2575 2.12375 0.515 2.2475 -0.25 2.375 C-2.93593821 2.85252842 -2.93593821 2.85252842 -4.875 4.03125 C-7.34819824 5.15873743 -9.04866023 5.20445117 -11.75 5.125 C-12.54921875 5.10695313 -13.3484375 5.08890625 -14.171875 5.0703125 C-14.77515625 5.04710937 -15.3784375 5.02390625 -16 5 C-13.32975467 3.21983645 -10.94969139 2.02836981 -8 0.8125 C-7.13375 0.44769531 -6.2675 0.08289063 -5.375 -0.29296875 C-3 -1 -3 -1 0 0 Z " fill="#075583" transform="translate(192,299)"/>
<path d="M0 0 C0.82273185 2.36734455 1.10990889 3.64262754 0.36328125 6.0703125 C0.01652344 6.74835938 -0.33023437 7.42640625 -0.6875 8.125 C-1.02136719 8.80820313 -1.35523438 9.49140625 -1.69921875 10.1953125 C-3.22681238 12.31467663 -4.60786878 13.02300325 -7 14 C-6.44010697 10.00987629 -5.24330232 7.4744948 -2.9375 4.1875 C-2.38964844 3.39730469 -1.84179688 2.60710937 -1.27734375 1.79296875 C-0.64505859 0.90544922 -0.64505859 0.90544922 0 0 Z " fill="#17547E" transform="translate(32,72)"/>
<path d="M0 0 C1.485 0.99 1.485 0.99 3 2 C3.51171875 4.6015625 3.51171875 4.6015625 3.6875 7.625 C3.75324219 8.62789062 3.81898437 9.63078125 3.88671875 10.6640625 C3.92410156 11.43492187 3.96148438 12.20578125 4 13 C-0.90196078 8.83333333 -0.90196078 8.83333333 -1.375 4.8125 C-1 2 -1 2 0 0 Z " fill="#0F5780" transform="translate(19,211)"/>
<path d="M0 0 C1.23051636 3.59622738 0.79495922 6.35936924 0.125 10.0625 C-0.05804688 11.10535156 -0.24109375 12.14820313 -0.4296875 13.22265625 C-1 16 -1 16 -2 19 C-2.66 19 -3.32 19 -4 19 C-4.33 19.66 -4.66 20.32 -5 21 C-4.42351925 13.64987044 -2.28953836 6.98575424 0 0 Z " fill="#0D4878" transform="translate(309,184)"/>
<path d="M0 0 C0.33 0 0.66 0 1 0 C2.03387512 8.0125322 2.10466648 15.92905177 2 24 C1.67 24 1.34 24 1 24 C-1.00107527 15.74763174 -0.98970409 8.41248481 0 0 Z " fill="#11458A" transform="translate(5,147)"/>
<path d="M0 0 C0.33 0 0.66 0 1 0 C1.07347656 1.19496094 1.07347656 1.19496094 1.1484375 2.4140625 C1.70029395 10.38157314 1.70029395 10.38157314 4 18 C3.34 17.67 2.68 17.34 2 17 C2 16.34 2 15.68 2 15 C1.01 15 0.02 15 -1 15 C-2.125 10.25 -2.125 10.25 -1 8 C-1 6.824375 -1 5.64875 -1 4.4375 C-1 1 -1 1 0 0 Z " fill="#084B72" transform="translate(138,74)"/>
<path d="M0 0 C-2.97 2.97 -5.94 5.94 -9 9 C-10 6 -10 6 -8.875 2.875 C-7 0 -7 0 -4.4375 -0.9375 C-2 -1 -2 -1 0 0 Z " fill="#225D83" transform="translate(275,257)"/>
<path d="M0 0 C0.33 0 0.66 0 1 0 C1.14715692 7.3905476 0.70776992 14.64424835 0 22 C-0.33 22 -0.66 22 -1 22 C-1.22415191 19.64640498 -1.42959058 17.29351589 -1.625 14.9375 C-1.74101563 13.62652344 -1.85703125 12.31554687 -1.9765625 10.96484375 C-2.00153472 6.74037732 -1.3471837 3.95413841 0 0 Z " fill="#0E5073" transform="translate(7,134)"/>
<path d="M0 0 C2.14699969 3.44175522 2.09856795 5.7720292 1.625 9.75 C1.51414062 10.73484375 1.40328125 11.7196875 1.2890625 12.734375 C1.19367187 13.48203125 1.09828125 14.2296875 1 15 C0.01 15.33 -0.98 15.66 -2 16 C-2.2396943 10.36718401 -1.38529821 5.45461169 0 0 Z " fill="#1E5F7F" transform="translate(8,124)"/>
<path d="M0 0 C0.80824219 0.19464844 1.61648437 0.38929688 2.44921875 0.58984375 C3.06410156 0.74582031 3.67898437 0.90179688 4.3125 1.0625 C4.3125 1.7225 4.3125 2.3825 4.3125 3.0625 C5.3025 3.3925 6.2925 3.7225 7.3125 4.0625 C5.87510487 4.08962066 4.43756137 4.10895067 3 4.125 C1.79923828 4.14240234 1.79923828 4.14240234 0.57421875 4.16015625 C-1.6875 4.0625 -1.6875 4.0625 -4.6875 3.0625 C-4.6875 2.4025 -4.6875 1.7425 -4.6875 1.0625 C-5.6775 0.7325 -6.6675 0.4025 -7.6875 0.0625 C-4.39053895 -1.03648702 -3.28255097 -0.80874444 0 0 Z " fill="#0D4D73" transform="translate(120.6875,297.9375)"/>
<path d="M0 0 C1.67013418 0.65793165 3.3357865 1.32723284 5 2 C5.61230469 2.24105469 6.22460938 2.48210937 6.85546875 2.73046875 C11.88712807 4.77425614 11.88712807 4.77425614 13 7 C8.27132978 6.53640488 4.81857204 5.9200845 1 3 C0.67 2.01 0.34 1.02 0 0 Z " fill="#1F5577" transform="translate(79,283)"/>
<path d="M0 0 C0.66 0.33 1.32 0.66 2 1 C2 1.99 2 2.98 2 4 C-4.5 7.125 -4.5 7.125 -9 6 C-6.03 4.02 -3.06 2.04 0 0 Z " fill="#1C528C" transform="translate(76,31)"/>
<path d="M0 0 C-0.25 2.875 -0.25 2.875 -1 6 C-3.0625 7.375 -3.0625 7.375 -5 8 C-5 7.34 -5 6.68 -5 6 C-5.66 5.67 -6.32 5.34 -7 5 C-2.25 0 -2.25 0 0 0 Z " fill="#195F87" transform="translate(52,51)"/>
<path d="M0 0 C2.31 0.33 4.62 0.66 7 1 C0.86198737 4.41000702 -5.15506777 4.11962017 -12 4 C-12 3.67 -12 3.34 -12 3 C-8.04 2.34 -4.08 1.68 0 1 C0 0.67 0 0.34 0 0 Z " fill="#2F5980" transform="translate(188,301)"/>
<path d="M0 0 C0.66 0.99 1.32 1.98 2 3 C1.319375 3.5259375 1.319375 3.5259375 0.625 4.0625 C-1.64661334 6.77096206 -2.16798854 9.60795328 -3 13 C-3.99 13 -4.98 13 -6 13 C-4.58707905 8.1725201 -2.57025846 4.2837641 0 0 Z " fill="#2B5C87" transform="translate(24,84)"/>
<path d="M0 0 C0.33 0.66 0.66 1.32 1 2 C0.34 2 -0.32 2 -1 2 C-1 2.66 -1 3.32 -1 4 C-3.3125 6.1875 -3.3125 6.1875 -6 8 C-6.99 7.67 -7.98 7.34 -9 7 C-8.34 6.67 -7.68 6.34 -7 6 C-6.67 5.01 -6.34 4.02 -6 3 C-2.9375 1.3125 -2.9375 1.3125 0 0 Z " fill="#154480" transform="translate(60,44)"/>
<path d="M0 0 C4.95 0.33 9.9 0.66 15 1 C13 3 13 3 9.1875 3.25 C5.74724834 3.17480324 3.11098721 2.55549361 0 1 C0 0.67 0 0.34 0 0 Z " fill="#155177" transform="translate(129,302)"/>
<path d="M0 0 C0.33 0 0.66 0 1 0 C1.34641555 4.84981776 0.59367168 7.8693377 -2 12 C-2.99 12.33 -3.98 12.66 -5 13 C-4.731875 12.34 -4.46375 11.68 -4.1875 11 C-2.74294953 7.35060933 -1.37128822 3.67754567 0 0 Z " fill="#165078" transform="translate(299,214)"/>
<path d="M0 0 C4.95 0.33 9.9 0.66 15 1 C15 1.33 15 1.66 15 2 C13.43784452 2.16986545 11.8752548 2.33573964 10.3125 2.5 C9.00732422 2.63921875 9.00732422 2.63921875 7.67578125 2.78125 C5.10276661 2.99159864 2.58015636 3.03719144 0 3 C0 2.01 0 1.02 0 0 Z " fill="#095B8A" transform="translate(144,9)"/>
<path d="M0 0 C1.875 0.125 1.875 0.125 4 1 C5.40666215 4.01427603 6.14845728 6.05977053 5.625 9.375 C5.41875 9.91125 5.2125 10.4475 5 11 C3.15172566 7.3874638 1.44950455 3.7910119 0 0 Z " fill="#0E517C" transform="translate(290,82)"/>
<path d="M0 0 C0.66 0 1.32 0 2 0 C0.44499019 3.81684226 -2.03595495 6.19195732 -5 9 C-5.99 8.67 -6.98 8.34 -8 8 C-4.55384615 3.2 -4.55384615 3.2 -1.75 2.1875 C-1.1725 2.125625 -0.595 2.06375 0 2 C0 1.34 0 0.68 0 0 Z " fill="#0D6095" transform="translate(59,46)"/>
<path d="M0 0 C0.33 0 0.66 0 1 0 C1.36544911 1.89369084 1.71689175 3.79008782 2.0625 5.6875 C2.25972656 6.74324219 2.45695313 7.79898438 2.66015625 8.88671875 C2.99034946 11.91159216 2.77474558 14.07980511 2 17 C1.67 17 1.34 17 1 17 C0.00749455 11.29309366 -0.10477512 5.78591511 0 0 Z " fill="#2F5C7D" transform="translate(5,164)"/>
<path d="M0 0 C0 3.12535255 -0.49740064 4.34835407 -2 7 C-3 8 -3 8 -5.5625 8.0625 C-6.366875 8.041875 -7.17125 8.02125 -8 8 C-6.625 6.5 -6.625 6.5 -5 5 C-4.34 5 -3.68 5 -3 5 C-2.690625 4.360625 -2.38125 3.72125 -2.0625 3.0625 C-1 1 -1 1 0 0 Z " fill="#2B5885" transform="translate(178,90)"/>
<path d="M0 0 C0.66 0.66 1.32 1.32 2 2 C1.67 2.66 1.34 3.32 1 4 C0.34 4 -0.32 4 -1 4 C-1 4.99 -1 5.98 -1 7 C-2.98 7.99 -2.98 7.99 -5 9 C-4.67 6.36 -4.34 3.72 -4 1 C-3.34 1.66 -2.68 2.32 -2 3 C-1.34 2.01 -0.68 1.02 0 0 Z " fill="#0D5A94" transform="translate(37,69)"/>
<path d="M0 0 C0.33 0.66 0.66 1.32 1 2 C1.99 2.33 2.98 2.66 4 3 C4 6.96 4 10.92 4 15 C3.67 15 3.34 15 3 15 C2.49564306 13.0636296 1.99666126 11.12585854 1.5 9.1875 C1.2215625 8.10855469 0.943125 7.02960938 0.65625 5.91796875 C0 3 0 3 0 0 Z " fill="#044F75" transform="translate(180,67)"/>
<path d="M0 0 C3.96 0.33 7.92 0.66 12 1 C11.67 1.99 11.34 2.98 11 4 C9.35 4 7.7 4 6 4 C6 3.34 6 2.68 6 2 C3.03 1.505 3.03 1.505 0 1 C0 0.67 0 0.34 0 0 Z " fill="#0D537A" transform="translate(193,13)"/>
<path d="M0 0 C0.99 0 1.98 0 3 0 C3 0.99 3 1.98 3 3 C4.32 3.66 5.64 4.32 7 5 C4 6 4 6 2 6 C2 5.34 2 4.68 2 4 C1.34 4 0.68 4 0 4 C0 2.68 0 1.36 0 0 Z " fill="#0A517A" transform="translate(264,50)"/>
<path d="M0 0 C1.31223496 3.93670488 0.24296256 6.12488144 -1 10 C-1.99 9.01 -2.98 8.02 -4 7 C-2.79618552 4.50638429 -1.54571278 2.31856917 0 0 Z " fill="#09628E" transform="translate(309,181)"/>
<path d="M0 0 C0.66 0 1.32 0 2 0 C2.66 1.98 3.32 3.96 4 6 C2.68 6.33 1.36 6.66 0 7 C-0.66 6.01 -1.32 5.02 -2 4 C-1.01 4 -0.02 4 1 4 C0.67 2.68 0.34 1.36 0 0 Z " fill="#095C91" transform="translate(277,64)"/>
<path d="M0 0 C0.66 0 1.32 0 2 0 C2.33 1.65 2.66 3.3 3 5 C1.35 5.33 -0.3 5.66 -2 6 C-2 2 -2 2 0 0 Z " fill="#0F5F9B" transform="translate(181,64)"/>
<path d="M0 0 C0.66 0.99 1.32 1.98 2 3 C-4.625 2.25 -4.625 2.25 -8 0 C-4.67212881 -1.1092904 -3.3006216 -1.01557588 0 0 Z " fill="#276084" transform="translate(114,297)"/>
<path d="M0 0 C2.97 0.99 5.94 1.98 9 3 C9 3.66 9 4.32 9 5 C7.68 5 6.36 5 5 5 C5 4.34 5 3.68 5 3 C3.02 3 1.04 3 -1 3 C-0.67 2.01 -0.34 1.02 0 0 Z " fill="#1F5195" transform="translate(205,14)"/>
<path d="M0 0 C2.125 0.375 2.125 0.375 4 1 C2.35 2.65 0.7 4.3 -1 6 C-1.625 4.125 -1.625 4.125 -2 2 C-1.34 1.34 -0.68 0.68 0 0 Z " fill="#164F77" transform="translate(36,67)"/>
<path d="M0 0 C0.33 0.66 0.66 1.32 1 2 C1.99 1.67 2.98 1.34 4 1 C4.99 1.66 5.98 2.32 7 3 C4.6875 4.125 4.6875 4.125 2 5 C1.01 4.34 0.02 3.68 -1 3 C-0.67 2.01 -0.34 1.02 0 0 Z " fill="#0668A1" transform="translate(225,26)"/>
<path d="M0 0 C4.75 0.75 4.75 0.75 7 3 C5.35 3.33 3.7 3.66 2 4 C1.34 2.68 0.68 1.36 0 0 Z " fill="#0568A2" transform="translate(144,100)"/>
<path d="M0 0 C0.66 0.33 1.32 0.66 2 1 C1.625 3.9375 1.625 3.9375 1 7 C0.01 7.495 0.01 7.495 -1 8 C-1.33 6.02 -1.66 4.04 -2 2 C-1.34 2 -0.68 2 0 2 C0 1.34 0 0.68 0 0 Z " fill="#0668A3" transform="translate(22,96)"/>
<path d="M0 0 C1.27875 0.103125 2.5575 0.20625 3.875 0.3125 C4.95394531 0.39951172 4.95394531 0.39951172 6.0546875 0.48828125 C8 1 8 1 10 4 C5.74357648 4.3648363 3.46444495 3.47460354 0 1 C0 0.67 0 0.34 0 0 Z " fill="#134666" transform="translate(147,97)"/>
<path d="M0 0 C1.32 0.33 2.64 0.66 4 1 C3.34 2.32 2.68 3.64 2 5 C0.68 4.34 -0.64 3.68 -2 3 C-1.34 2.01 -0.68 1.02 0 0 Z " fill="#09699E" transform="translate(180,91)"/>
<path d="M0 0 C0.33 0.66 0.66 1.32 1 2 C1.99 2 2.98 2 4 2 C4.66 3.98 5.32 5.96 6 8 C5.34 7.67 4.68 7.34 4 7 C4 6.34 4 5.68 4 5 C3.01 5 2.02 5 1 5 C0.67 3.35 0.34 1.7 0 0 Z " fill="#085481" transform="translate(136,84)"/>
<path d="M0 0 C0.33 0.99 0.66 1.98 1 3 C0.01 4.485 0.01 4.485 -1 6 C-2.32 5.67 -3.64 5.34 -5 5 C-3.35 3.35 -1.7 1.7 0 0 Z " fill="#1E577C" transform="translate(43,59)"/>
</svg>
